# xmcd
# Track frame offsets:
# 150
# 14270
# 30540
# 45852
# 68555
# 82405
# 97660
# 110217
# 121280
# 136705
#
# Disc length: 2015 seconds
# Revision: 0
# Processed by: cddbd v1.4PL0 Copyright (c) Steve Scherf et al.
# Submitted via: VisiTrax 2.9.5.180 - For more info visit www.synapsa.com
#
DISCID=7507dd0a
DTITLE=Elizabeth Cook - Elizabeth Cook
DYEAR=1900
DGENRE=
TTITLE0=House Of Mirrors
TTITLE1=Everyday Sunshine
TTITLE2=Don't Bother Me
TTITLE3=Fade Away
TTITLE4=What About Now
TTITLE5=Blue Shades
TTITLE6=You Say
TTITLE7=Demon
TTITLE8=Mama You Wanted To Be A Singer Too
TTITLE9=Try Me
EXTD=
EXTT0=
EXTT1=
EXTT2=
EXTT3=
EXTT4=
EXTT5=
EXTT6=
EXTT7=
EXTT8=
EXTT9=
PLAYORDER=
